<?xml version="1.0" encoding="utf-8"?>
<!-- Generator: Adobe Illustrator 21.1.0, SVG Export Plug-In . SVG Version: 6.00 Build 0)  -->
<svg version="1.1" id="Layer_1" xmlns="http://www.w3.org/2000/svg" xmlns:xlink="http://www.w3.org/1999/xlink" x="0px" y="0px"
	 viewBox="0 0 69.2 63.8" style="enable-background:new 0 0 69.2 63.8;" xml:space="preserve">
<style type="text/css">
	.st0{fill:#631B4B;}
	.st1{fill:#FFFFFF;}
	.st2{fill:none;stroke:#020202;stroke-miterlimit:10;}
	.st3{fill:none;stroke:#000000;stroke-miterlimit:10;}
	.st4{fill:#EBDCEC;}
	.st5{fill:#303030;}
	.st6{fill:none;stroke:#FFFFFF;stroke-width:3;stroke-miterlimit:10;}
	.st7{fill:#631B4B;stroke:#FFFFFF;stroke-width:3;stroke-miterlimit:10;}
</style>
<g>
	<circle class="st0" cx="34.6" cy="32.3" r="27.7"/>
	<g>
		<g>
			<path class="st1" d="M51.5,19.1c-1.1,0.1-1.8,0.3-2.7,0.8c-0.3-1.5-1.2-2.6-2.2-3.7c-2.4-2.5-7-1.1-8.2,2c-1.1,2.9,1.2,5.7,4.1,6
				c1.2,0.2,2.4-0.1,3.6-0.5c0.4,5.3-0.9,10.9-2.8,15.5c-1.4,3.4-3.4,6.7-6.7,10.5c0.7-6.5,1.5-14.6-0.3-28.5
				C35.3,14.9,31.4,3,22.7,4c-2,0.2-3.8,1-5.3,2.3c-1.3-0.7-2.7-1.2-4.2-1.8c-0.8-0.3-1.8-0.5-2.2-0.5c-0.4,0-0.7,0.2-0.1,0.5
				c2.1,0.8,3.5,2,5.1,3.2c-3.1,3.4-5,7.4-4.7,12.1c0.2,3.8,1.8,7.6,5,9.8c3.3,2.3,6.4-2.9,7.2-5.5c1.4-4.7,1.6-11.7-4.4-16.6
				c0.8-0.8,1.7-1.4,2.8-1.7c4.5-1.4,7.2,4.9,8.4,8.1c2,5.6,3,11.5,3.7,17.4c0.8,6.6,1,13.3,1,20c0,1.1,2.4-0.3,2.9-0.8
				c10.4-9.5,10.9-23.2,11-25.3c0-0.8,0-2-0.1-2.9c1.3-0.9,1.9-1.7,2.9-2.6C52.3,18.9,51.8,19,51.5,19.1z M20.6,14.2
				c0.9,2.6,1.1,5.6,0.5,8.3c-0.4,2-1.2,4.3-2.8,5.6c-3.8-2.9-5.1-8.6-3.9-13.1c0.6-2.2,1.8-4.2,3.2-6C19,10.5,19.9,12.4,20.6,14.2z
				 M41.8,21.8c-1.4-1.5-1.3-4.7,0.9-5.5c0,0,0.1-0.1,0.4,0.1c0.3,0.2,0.6,0.4,0.9,0.7c0.6,0.7,1,1.7,1.3,2.6
				c0.2,0.7,0.4,1.5,0.5,2.2C44.4,22.8,43.1,23.2,41.8,21.8z"/>
			<path class="st0" d="M35.5,51.6c-0.1,0-0.2,0-0.3-0.1c-0.1,0-0.3-0.2-0.3-0.5c0-7.5-0.3-14-1-20c-0.8-7.2-2-12.6-3.7-17.3
				c-1.6-4.3-4.3-9.2-8.2-8c-0.9,0.3-1.7,0.8-2.6,1.6c6.7,5.7,5.2,13.5,4.3,16.6C23.1,26,21.2,29.3,19,30c-1,0.3-1.9,0.2-2.8-0.4
				c-3-2.1-4.8-5.7-5.1-9.9c-0.2-4.2,1.4-8.4,4.6-12c-0.2-0.2-0.4-0.3-0.6-0.5c-1.3-1-2.5-1.9-4.3-2.6c-0.1-0.1-0.6-0.2-0.5-0.5
				c0-0.2,0.4-0.3,0.6-0.3c0.5,0,1.4,0.2,2.3,0.6c1.5,0.5,2.9,1.1,4.2,1.7c1.6-1.3,3.4-2,5.3-2.2c8.8-0.9,12.8,11,13.6,17.5
				c1.8,13.5,1,21.5,0.4,28c2.8-3.3,4.8-6.5,6.3-10.1c2.1-4.9,3.1-10.5,2.8-15.2c-1.2,0.4-2.3,0.6-3.4,0.4c-1.6-0.2-3-1.1-3.8-2.5
				c-0.7-1.2-0.8-2.5-0.4-3.8c0.6-1.6,2.2-2.9,4.1-3.3c1.7-0.3,3.3,0.1,4.3,1.2c1.1,1.1,1.9,2.2,2.2,3.6c0.9-0.5,1.6-0.6,2.6-0.7
				l0.1,0c0.3,0,0.6-0.1,0.7,0.1c0.1,0.2-0.1,0.3-0.2,0.5c-0.3,0.3-0.6,0.6-0.9,0.8c-0.6,0.6-1.1,1.1-1.9,1.7c0.1,1,0.1,2.1,0.1,2.9
				l0,0.1c-0.2,4.8-1.7,16.8-11.1,25.4C37.7,50.7,36.3,51.6,35.5,51.6z M23.2,5.2c2.8,0,5.3,2.9,7.3,8.4c1.7,4.8,2.9,10.2,3.7,17.4
				c0.7,6,1,12.5,1,20c0,0.2,0.1,0.2,0.1,0.2c0.5,0.2,2.1-0.7,2.6-1.1c9.3-8.5,10.7-20.4,11-25.2l0-0.1c0-0.7,0-1.9-0.1-2.9l0-0.1
				l0.1-0.1c0.9-0.6,1.4-1.1,2-1.7c0.3-0.3,0.6-0.6,0.9-0.9c0,0,0.1-0.1,0.1-0.1c-0.1,0-0.2,0-0.2,0l-0.1,0
				c-1.1,0.1-1.8,0.3-2.7,0.8l-0.2,0.1l0-0.2c-0.3-1.4-1.1-2.5-2.2-3.6c-1-1-2.5-1.5-4-1.1c-1.8,0.4-3.3,1.6-3.8,3.1
				c-0.4,1.2-0.3,2.4,0.3,3.5c0.7,1.2,2.1,2.1,3.6,2.3c1.1,0.1,2.3,0,3.5-0.5l0.2-0.1l0,0.2c0.3,4.9-0.7,10.5-2.8,15.6
				c-1.6,3.8-3.7,7.1-6.7,10.6l-0.3,0.4l0.1-0.9c0.7-6.5,1.5-14.5-0.4-28.1C35.2,15,31.3,3.2,22.7,4.1c-1.9,0.2-3.6,0.9-5.2,2.2
				l-0.1,0.1l-0.1-0.1c-1.3-0.7-2.7-1.2-4.2-1.7c-0.8-0.3-1.8-0.5-2.2-0.5c-0.1,0-0.2,0-0.2,0c0,0,0.1,0.1,0.3,0.1
				c1.8,0.7,3,1.6,4.3,2.6c0.3,0.2,0.5,0.4,0.8,0.6l0.1,0.1l-0.1,0.1c-3.3,3.6-4.9,7.7-4.7,11.9c0.2,4.1,2,7.6,4.9,9.6
				c0.8,0.6,1.6,0.7,2.5,0.4c2.1-0.7,3.9-3.9,4.5-5.9c0.9-3.1,2.4-10.9-4.3-16.4l-0.1-0.1L19,7.2c0.9-0.9,1.8-1.5,2.8-1.8
				C22.3,5.3,22.7,5.2,23.2,5.2z M18.3,28.4l-0.1-0.1c-3.6-2.8-5.3-8.4-3.9-13.3c0.5-2,1.6-4.1,3.2-6.1l0.1-0.1l0.1,0.1
				c1.2,1.3,2.2,3,3,5.3l0,0c0.9,2.6,1.1,5.5,0.5,8.4c-0.4,1.8-1.2,4.3-2.9,5.7L18.3,28.4z M17.6,9.3c-1.5,1.9-2.5,3.9-3.1,5.8
				c-1.3,4.7,0.3,10.1,3.7,12.9c1.6-1.4,2.3-3.7,2.7-5.5c0.6-2.8,0.4-5.7-0.5-8.2l0,0C19.7,12.2,18.7,10.5,17.6,9.3z M43.7,22.9
				c-0.6,0-1.3-0.2-2-0.9c-0.8-0.9-1.2-2.3-0.9-3.6c0.3-1.1,0.9-1.8,1.8-2.1c0.1,0,0.2-0.1,0.5,0.1c0.3,0.2,0.6,0.4,0.9,0.7
				c0.6,0.6,1,1.5,1.3,2.7c0.2,0.7,0.4,1.5,0.5,2.3l0,0.1l-0.1,0.1C45.2,22.5,44.5,22.9,43.7,22.9z M42.8,16.5
				C42.8,16.5,42.8,16.5,42.8,16.5c-0.9,0.3-1.4,1-1.7,1.9c-0.3,1.2,0,2.5,0.8,3.3l0,0c1,1.1,2.1,1.1,3.7,0.2
				c-0.1-0.7-0.3-1.4-0.5-2.1c-0.3-1.1-0.7-1.9-1.3-2.5c-0.3-0.3-0.5-0.5-0.8-0.6C43,16.6,42.9,16.5,42.8,16.5z"/>
		</g>
		<g>
			<path class="st0" d="M35.8,51.5l-0.2-0.3c8.4-7,12.5-19.3,12.2-27.4c-0.2-3.8-1.3-6.5-3.2-7.9l0.2-0.3c2,1.4,3.2,4.2,3.4,8.1
				C48.5,31.9,44.3,44.4,35.8,51.5z"/>
		</g>
		<g>
			<path class="st1" d="M15.8,7.5c0.6,0.4,1.3,1,1.8,1.5"/>
			<path class="st0" d="M17.5,9.1C17,8.6,16.3,8,15.7,7.6l0.2-0.3c0.6,0.4,1.3,1,1.9,1.6L17.5,9.1z"/>
		</g>
		<g>
			<path class="st1" d="M17.4,6.2c0.6,0.3,1.3,0.7,1.8,1.1"/>
			<path class="st0" d="M19.1,7.5c-0.5-0.5-1.1-0.8-1.8-1.1l0.1-0.3c0.7,0.3,1.3,0.7,1.8,1.2L19.1,7.5z"/>
		</g>
		<g>
			<path class="st0" d="M47.1,17.1c-0.4-0.6-1.2-1-2.1-1.1c-1.1-0.1-2.1,0.2-2.8,0.8L42,16.6c0.7-0.7,1.9-1,3.1-0.9
				c1,0.1,1.9,0.6,2.4,1.2L47.1,17.1z"/>
		</g>
		<g>
			<path class="st0" d="M17.4,28.9c-2.8-1.2-5.4-6.2-4.7-12.5c0.3-2.5,1.8-5.5,4.1-8.2L17,8.5c-2.3,2.6-3.8,5.5-4.1,8
				c-0.6,6.2,1.8,11,4.5,12.1L17.4,28.9z"/>
		</g>
		<g>
			<path class="st0" d="M35.6,51.4l-0.3,0c0.7-10,0.9-21.1-1.7-34c-0.6-2.9-2.1-6.4-3.8-8.7c-1.9-2.8-4.1-4-6.6-3.9
				c-1.6,0.1-3.2,0.8-4.6,2.1l-0.2-0.2c1.5-1.3,3.1-2,4.8-2.1c2.6-0.1,4.9,1.2,6.9,4c1.7,2.4,3.2,5.9,3.8,8.8
				C36.5,30.3,36.2,41.4,35.6,51.4z"/>
		</g>
		<g>
			<path class="st1" d="M45.7,21.7c0.1,0.3,0.1,0.5,0.1,0.9c0.1,0.5,0.1,1.2,0.1,1.7"/>
			<path class="st0" d="M45.8,24.2c0-0.4-0.1-1.1-0.1-1.6c-0.1-0.4-0.1-0.6-0.1-0.9l0.3-0.1c0.1,0.3,0.1,0.5,0.1,0.9
				c0.1,0.6,0.1,1.2,0.1,1.7L45.8,24.2z"/>
		</g>
		<g>
			<path class="st1" d="M48.7,20c0.2,0.8,0.2,1.1,0.2,2"/>
			<path class="st0" d="M49.1,22h-0.3c0-0.9,0-1.2-0.2-2l0.3-0.1C49.1,20.7,49.1,21.1,49.1,22z"/>
		</g>
		<g>
			<path class="st0" d="M17,30l0-0.3c2.5-0.3,4.3-2.8,5.4-7.2c0.3-1.1,0.9-3.6,0-7.6C20.7,7.3,12.2,4.4,10.8,4.4l0-0.3
				c0.9,0,10.1,2.5,11.9,10.7c0.9,4.1,0.3,6.7,0,7.8C21.9,25.7,20.3,29.6,17,30z"/>
		</g>
		<g>
			<path class="st1" d="M16.2,29.3c1.1-0.2,1.9-0.9,2.6-1.5"/>
			<path class="st0" d="M16.2,29.4l-0.1-0.3c1-0.2,1.8-0.8,2.5-1.5l0.2,0.2C18.2,28.5,17.3,29.2,16.2,29.4z"/>
		</g>
		<g>
			<path class="st1" d="M36.6,49.6c-0.4,0.5-0.7,1.1-1.2,1.7"/>
			<path class="st0" d="M35.5,51.5l-0.3-0.2c0.3-0.3,0.5-0.6,0.7-1c0.2-0.3,0.3-0.5,0.5-0.8l0.3,0.2c-0.2,0.2-0.3,0.5-0.5,0.8
				C36,50.8,35.8,51.2,35.5,51.5z"/>
		</g>
		<g>
			<path class="st0" d="M39.9,17.8l-0.3-0.1c0.4-0.9,1.2-1.7,2.3-2.1c1.5-0.6,3.2-0.4,4.3,0.1L46.1,16c-1.1-0.4-2.7-0.7-4.1-0.1
				C41.1,16.3,40.3,17,39.9,17.8z"/>
		</g>
		<g>
			<path class="st0" d="M43.4,23.7c-0.6,0-1.2-0.1-1.7-0.4c-0.9-0.5-2-1.7-2.3-3.3l0.3,0c0.2,1.5,1.3,2.6,2.1,3.1
				c1.1,0.6,2.9,0.4,4-0.4l0.2,0.3C45.3,23.4,44.3,23.7,43.4,23.7z"/>
		</g>
		<g>
			<path class="st1" d="M49,20.9c0.8-0.7,1.7-1.3,2.8-1.7"/>
			<path class="st0" d="M49.1,21l-0.2-0.2c0.8-0.8,1.8-1.3,2.8-1.7l0.1,0.3C50.8,19.7,49.9,20.3,49.1,21z"/>
		</g>
	</g>
</g>
</svg>
