<?xml version="1.0" encoding="utf-8"?>
<!-- Generator: Adobe Illustrator 21.1.0, SVG Export Plug-In . SVG Version: 6.00 Build 0)  -->
<svg version="1.1" id="Layer_1" xmlns="http://www.w3.org/2000/svg" xmlns:xlink="http://www.w3.org/1999/xlink" x="0px" y="0px"
	 viewBox="0 0 69.2 63.8" style="enable-background:new 0 0 69.2 63.8;" xml:space="preserve">
<style type="text/css">
	.st0{fill:#631B4B;}
	.st1{fill:#FFFFFF;}
	.st2{fill:none;stroke:#020202;stroke-miterlimit:10;}
	.st3{fill:none;stroke:#000000;stroke-miterlimit:10;}
	.st4{fill:#EBDCEC;}
	.st5{fill:#303030;}
	.st6{fill:none;stroke:#FFFFFF;stroke-width:3;stroke-miterlimit:10;}
	.st7{fill:#631B4B;stroke:#FFFFFF;stroke-width:3;stroke-miterlimit:10;}
</style>
<g>
	<path class="st0" d="M24,53.4c4,4.6,7.5,6.1,12.1,7.5c-0.1,0-0.3-10.9-9.2-15.6c-5.8-3.1-5.2-5.8-5.2-5.8
		C21.4,39.3,20.1,48.9,24,53.4z"/>
	<path class="st0" d="M47.4,37.1c-2.3-8-11.5-12.7-14.6-21.2c-2-5.4,2.7-11.4,11.4-8.4c3,1,3.9,2.4,3.9,2.4s-2.8-8-15.9-6.8
		C20.2,4,12.2,16.8,18.5,27.7c1.1,1.9,2.3,3.4,3.5,4.5c3.1,3.1,6.1,6,8.9,9.7c2.6,3.4,5,8.1,6.5,18.8C37.4,60.7,51.3,50.6,47.4,37.1
		z"/>
	<g>
		<path class="st0" d="M48,11.7c-5.8-3.4-10.4-0.2-10.4-0.2s1.2-0.4,3-0.3c5.3,0.5,6.3,4.7,4,7.1c-1.7,1.8-4,2.8-6.2,3.8
			c1,1.2,2.1,2.4,3.2,3.6c1.6,1.7,3.2,3.4,4.5,5.2c1-0.9,2.1-1.9,3.3-3C54.7,23,53.9,15.2,48,11.7z"/>
	</g>
</g>
</svg>
